<?xml version="1.0" encoding="UTF-8" standalone="no"?>
<svg width="40px" height="40px" viewBox="0 0 40 40" version="1.1" xmlns="http://www.w3.org/2000/svg" xmlns:xlink="http://www.w3.org/1999/xlink">
    <!-- Generator: Sketch 43 (38999) - http://www.bohemiancoding.com/sketch -->
    <title>if_e52_221442</title>
    <desc>Created with Sketch.</desc>
    <defs></defs>
    <g id="Page-1" stroke="none" stroke-width="1" fill="none" fill-rule="evenodd">
        <g id="if_e52_221442" fill-rule="nonzero" fill="#B5B9C0">
            <path d="M27.4126042,20.0028379 L39.43057,7.98487212 C39.8072439,7.60829826 40.0133296,7.08963426 39.9993306,6.545872 C39.9884313,5.99900996 39.7602472,5.4725465 39.3649746,5.07877383 L34.9230829,0.636882147 C34.1028398,-0.184960809 32.8012302,-0.213058859 32.0169846,0.5712867 L19.9990188,12.5893525 L7.9834528,0.576086367 C7.19910724,-0.208259192 5.89839752,-0.178561253 5.07815446,0.640181918 L0.63626277,5.08047372 C0.242490102,5.47424638 0.0152058777,6.00230973 0.0027067453,6.54757188 C-0.00899244265,7.09133414 0.194893406,7.60999814 0.572967163,7.986572 L12.5877332,20.0013381 L0.573067156,32.0161041 C-0.211278402,32.8004497 -0.183180352,34.1003594 0.638662603,34.9222024 L5.07815446,39.3623942 C5.90079736,40.1843371 7.20140708,40.2123352 7.98655258,39.4279896 L20.0013186,27.4132236 L32.0152847,39.4279896 C32.7996303,40.2123352 34.10094,40.1842372 34.921383,39.3638941 L39.3632747,34.9220024 C39.7585473,34.5267298 39.9852315,34.0000664 39.9977307,33.4565041 C40.0085299,32.911242 39.8039441,32.392478 39.4274703,32.0160041 L27.4126042,20.0028379 Z" id="Shape"></path>
        </g>
    </g>
</svg>