<?xml version="1.0" encoding="UTF-8" standalone="no"?>
<svg width="56px" height="50px" viewBox="0 0 56 50" version="1.1" xmlns="http://www.w3.org/2000/svg" xmlns:xlink="http://www.w3.org/1999/xlink">
    <!-- Generator: Sketch 43 (38999) - http://www.bohemiancoding.com/sketch -->
    <title>if_cart_97742</title>
    <desc>Created with Sketch.</desc>
    <defs></defs>
    <g id="Page-1" stroke="none" stroke-width="1" fill="none" fill-rule="evenodd">
        <g id="if_cart_97742" fill-rule="nonzero" fill="#B5B9C0">
            <path d="M48.07,24.299 C49.002,24.299 49.806,23.658 50.019,22.752 L55.455,5.041 C55.705,3.964 55.037,2.888 53.961,2.637 C52.885,2.386 51.811,3.054 51.559,4.128 L50.985,6.574 L14.222,6.574 L13.16,1.584 C12.964,0.66 12.148,0 11.203,0 L2.017,0 C0.912,0 0.015,0.896 0.015,2 C0.015,3.105 0.911,4.002 2.017,4.002 L9.583,4.002 L14.677,27.927 C14.673,27.946 14.663,27.962 14.659,27.982 L13.356,34.367 C13.256,34.855 13.381,35.363 13.698,35.75 C14.012,36.135 14.485,36.359 14.983,36.359 L48.567,36.359 C49.485,36.359 50.227,35.615 50.227,34.699 C50.227,33.783 49.485,33.039 48.567,33.039 L17.015,33.039 L17.706,29.655 L48.07,24.299 Z" id="Shape"></path>
            <path d="M19.062,40.003 C16.464,40.003 14.359,42.107 14.359,44.702 C14.359,47.302 16.464,49.403 19.062,49.403 C21.658,49.403 23.761,47.301 23.761,44.702 C23.761,42.106 21.658,40.003 19.062,40.003 Z" id="Shape"></path>
            <path d="M43.894,40.003 C41.296,40.003 39.193,42.107 39.193,44.702 C39.193,47.302 41.297,49.403 43.894,49.403 C46.49,49.403 48.593,47.301 48.593,44.702 C48.593,42.106 46.49,40.003 43.894,40.003 Z" id="Shape"></path>
        </g>
    </g>
</svg>